<svg width="343" height="16" viewBox="0 0 343 16" fill="none" xmlns="http://www.w3.org/2000/svg">
<path d="M23.8711 10.0674C23.7568 11.0449 23.395 11.8003 22.7856 12.3335C22.1805 12.8625 21.3743 13.127 20.3672 13.127C19.2754 13.127 18.3994 12.7355 17.7393 11.9526C17.0833 11.1698 16.7554 10.1224 16.7554 8.81055V7.92188C16.7554 7.06283 16.9077 6.30745 17.2124 5.65576C17.5213 5.00407 17.9572 4.50472 18.52 4.15771C19.0828 3.80648 19.7345 3.63086 20.4751 3.63086C21.4569 3.63086 22.244 3.90592 22.8364 4.45605C23.4289 5.00195 23.7738 5.75944 23.8711 6.72852H22.646C22.5402 5.99219 22.3096 5.45898 21.9541 5.12891C21.6029 4.79883 21.1099 4.63379 20.4751 4.63379C19.6965 4.63379 19.085 4.92155 18.6406 5.49707C18.2005 6.07259 17.9805 6.89144 17.9805 7.95361V8.84863C17.9805 9.85156 18.1899 10.6493 18.6089 11.2417C19.0278 11.8341 19.6139 12.1304 20.3672 12.1304C21.0443 12.1304 21.5627 11.978 21.9224 11.6733C22.2863 11.3644 22.5275 10.8291 22.646 10.0674H23.8711ZM29.5967 13C29.529 12.8646 29.474 12.6234 29.4316 12.2764C28.8857 12.8434 28.234 13.127 27.4766 13.127C26.7995 13.127 26.243 12.9365 25.8071 12.5557C25.3755 12.1706 25.1597 11.6839 25.1597 11.0957C25.1597 10.3805 25.4305 9.82617 25.9722 9.43262C26.5181 9.03483 27.284 8.83594 28.27 8.83594H29.4126V8.29639C29.4126 7.8859 29.2899 7.56006 29.0444 7.31885C28.799 7.0734 28.4372 6.95068 27.959 6.95068C27.54 6.95068 27.1888 7.05648 26.9053 7.26807C26.6217 7.47965 26.48 7.73568 26.48 8.03613H25.2993C25.2993 7.69336 25.4199 7.36328 25.6611 7.0459C25.9066 6.72428 26.2367 6.47038 26.6514 6.28418C27.0703 6.09798 27.5295 6.00488 28.0288 6.00488C28.8201 6.00488 29.4401 6.20378 29.8887 6.60156C30.3372 6.99512 30.57 7.5389 30.5869 8.23291V11.394C30.5869 12.0246 30.6673 12.526 30.8281 12.8984V13H29.5967ZM27.6479 12.105C28.0161 12.105 28.3652 12.0098 28.6953 11.8193C29.0254 11.6289 29.2645 11.3813 29.4126 11.0767V9.66748H28.4922C27.0534 9.66748 26.334 10.0885 26.334 10.9307C26.334 11.2988 26.4567 11.5866 26.7021 11.7939C26.9476 12.0013 27.2629 12.105 27.6479 12.105ZM34.021 4.46875V6.13184H35.3032V7.03955H34.021V11.2988C34.021 11.5739 34.0781 11.7812 34.1924 11.9209C34.3066 12.0563 34.5013 12.124 34.7764 12.124C34.9118 12.124 35.098 12.0986 35.335 12.0479V13C35.026 13.0846 34.7256 13.127 34.4336 13.127C33.9089 13.127 33.5132 12.9683 33.2466 12.6509C32.98 12.3335 32.8467 11.8828 32.8467 11.2988V7.03955H31.5962V6.13184H32.8467V4.46875H34.021ZM39.5308 13.127C38.5998 13.127 37.8423 12.8223 37.2583 12.2129C36.6743 11.5993 36.3823 10.7804 36.3823 9.75635V9.54053C36.3823 8.85921 36.5114 8.25195 36.7695 7.71875C37.0319 7.18132 37.3958 6.76237 37.8613 6.46191C38.3311 6.15723 38.8389 6.00488 39.3848 6.00488C40.2777 6.00488 40.9717 6.29899 41.4668 6.88721C41.9619 7.47542 42.2095 8.31755 42.2095 9.41357V9.90234H37.5566C37.5736 10.5794 37.7703 11.1274 38.147 11.5464C38.5278 11.9611 39.0103 12.1685 39.5942 12.1685C40.009 12.1685 40.3602 12.0838 40.6479 11.9146C40.9357 11.7453 41.1875 11.521 41.4033 11.2417L42.1206 11.8003C41.5451 12.6847 40.6818 13.127 39.5308 13.127ZM39.3848 6.96973C38.9108 6.96973 38.513 7.14323 38.1914 7.49023C37.8698 7.83301 37.6709 8.31543 37.5947 8.9375H41.0352V8.84863C41.0013 8.25195 40.8405 7.79069 40.5527 7.46484C40.265 7.13477 39.8757 6.96973 39.3848 6.96973ZM43.2949 9.50879C43.2949 8.43815 43.5425 7.58757 44.0376 6.95703C44.5327 6.32227 45.1886 6.00488 46.0054 6.00488C46.8433 6.00488 47.4971 6.30111 47.9668 6.89355L48.0239 6.13184H49.0967V12.835C49.0967 13.7236 48.8322 14.424 48.3032 14.936C47.7785 15.4481 47.0718 15.7041 46.1831 15.7041C45.688 15.7041 45.2035 15.5983 44.7295 15.3867C44.2555 15.1751 43.8937 14.8853 43.644 14.5171L44.2534 13.8125C44.757 14.4346 45.3727 14.7456 46.1006 14.7456C46.6719 14.7456 47.1162 14.5848 47.4336 14.2632C47.7552 13.9416 47.916 13.4888 47.916 12.9048V12.3145C47.4463 12.8561 46.8052 13.127 45.9927 13.127C45.1886 13.127 44.5369 12.8032 44.0376 12.1558C43.5425 11.5083 43.2949 10.626 43.2949 9.50879ZM44.4756 9.64209C44.4756 10.4165 44.6343 11.0259 44.9517 11.4702C45.269 11.9103 45.7134 12.1304 46.2847 12.1304C47.0252 12.1304 47.569 11.7939 47.916 11.1211V7.98535C47.5563 7.32943 47.0168 7.00146 46.2974 7.00146C45.7261 7.00146 45.2796 7.22363 44.958 7.66797C44.6364 8.1123 44.4756 8.77035 44.4756 9.64209ZM50.563 9.50244C50.563 8.82959 50.6942 8.22445 50.9565 7.68701C51.2231 7.14958 51.5913 6.73486 52.061 6.44287C52.535 6.15088 53.0745 6.00488 53.6797 6.00488C54.6149 6.00488 55.3703 6.32861 55.9458 6.97607C56.5256 7.62354 56.8154 8.4847 56.8154 9.55957V9.64209C56.8154 10.3107 56.6864 10.9116 56.4282 11.4448C56.1743 11.9738 55.8083 12.3864 55.3301 12.6826C54.8561 12.9788 54.3102 13.127 53.6924 13.127C52.7614 13.127 52.006 12.8032 51.4263 12.1558C50.8507 11.5083 50.563 10.6514 50.563 9.58496V9.50244ZM51.7437 9.64209C51.7437 10.4038 51.9193 11.0153 52.2705 11.4766C52.626 11.9378 53.0999 12.1685 53.6924 12.1685C54.2891 12.1685 54.763 11.9357 55.1143 11.4702C55.4655 11.0005 55.6411 10.3446 55.6411 9.50244C55.6411 8.74919 55.4613 8.13981 55.1016 7.67432C54.7461 7.20459 54.2721 6.96973 53.6797 6.96973C53.0999 6.96973 52.6323 7.20036 52.2769 7.66162C51.9214 8.12288 51.7437 8.78304 51.7437 9.64209ZM61.6079 7.18555C61.4302 7.15592 61.2376 7.14111 61.0303 7.14111C60.2601 7.14111 59.7375 7.46908 59.4624 8.125V13H58.2881V6.13184H59.4307L59.4497 6.92529C59.8348 6.31169 60.3807 6.00488 61.0874 6.00488C61.3159 6.00488 61.4894 6.03451 61.6079 6.09375V7.18555ZM63.9692 13H62.7886V6.13184H63.9692V13ZM63.9819 3.25635H65.4038L63.7026 5.12256H62.7568L63.9819 3.25635ZM70.1455 13C70.0778 12.8646 70.0228 12.6234 69.9805 12.2764C69.4346 12.8434 68.7829 13.127 68.0254 13.127C67.3483 13.127 66.7918 12.9365 66.356 12.5557C65.9243 12.1706 65.7085 11.6839 65.7085 11.0957C65.7085 10.3805 65.9793 9.82617 66.521 9.43262C67.0669 9.03483 67.8328 8.83594 68.8188 8.83594H69.9614V8.29639C69.9614 7.8859 69.8387 7.56006 69.5933 7.31885C69.3478 7.0734 68.986 6.95068 68.5078 6.95068C68.0889 6.95068 67.7376 7.05648 67.4541 7.26807C67.1706 7.47965 67.0288 7.73568 67.0288 8.03613H65.8481C65.8481 7.69336 65.9688 7.36328 66.21 7.0459C66.4554 6.72428 66.7855 6.47038 67.2002 6.28418C67.6191 6.09798 68.0783 6.00488 68.5776 6.00488C69.369 6.00488 69.9889 6.20378 70.4375 6.60156C70.8861 6.99512 71.1188 7.5389 71.1357 8.23291V11.394C71.1357 12.0246 71.2161 12.526 71.377 12.8984V13H70.1455ZM68.1968 12.105C68.5649 12.105 68.9141 12.0098 69.2441 11.8193C69.5742 11.6289 69.8133 11.3813 69.9614 11.0767V9.66748H69.041C67.6022 9.66748 66.8828 10.0885 66.8828 10.9307C66.8828 11.2988 67.0055 11.5866 67.251 11.7939C67.4964 12.0013 67.8117 12.105 68.1968 12.105ZM76.9756 11.1782C76.9756 10.8608 76.855 10.6154 76.6138 10.4419C76.3768 10.2642 75.96 10.1118 75.3633 9.98486C74.7708 9.85791 74.299 9.70557 73.9478 9.52783C73.6007 9.3501 73.3426 9.13851 73.1733 8.89307C73.0083 8.64762 72.9258 8.35563 72.9258 8.01709C72.9258 7.45426 73.1628 6.97819 73.6367 6.58887C74.1149 6.19954 74.7243 6.00488 75.4648 6.00488C76.2435 6.00488 76.874 6.20589 77.3564 6.60791C77.8431 7.00993 78.0864 7.52409 78.0864 8.15039H76.9058C76.9058 7.82878 76.7682 7.5516 76.4932 7.31885C76.2223 7.0861 75.8796 6.96973 75.4648 6.96973C75.0374 6.96973 74.7031 7.06283 74.4619 7.24902C74.2207 7.43522 74.1001 7.67855 74.1001 7.979C74.1001 8.26253 74.2122 8.47624 74.4365 8.62012C74.6608 8.764 75.0649 8.90153 75.6489 9.03271C76.2371 9.1639 76.7132 9.32048 77.0771 9.50244C77.4411 9.68441 77.7098 9.90446 77.8833 10.1626C78.061 10.4165 78.1499 10.7275 78.1499 11.0957C78.1499 11.7093 77.9045 12.2023 77.4136 12.5747C76.9227 12.9429 76.2858 13.127 75.5029 13.127C74.9528 13.127 74.4661 13.0296 74.043 12.835C73.6198 12.6403 73.2876 12.3695 73.0464 12.0225C72.8094 11.6712 72.6909 11.2925 72.6909 10.8862H73.8652C73.8864 11.2798 74.043 11.5929 74.335 11.8257C74.6312 12.0542 75.0205 12.1685 75.5029 12.1685C75.9473 12.1685 76.3027 12.0796 76.5693 11.9019C76.8402 11.7199 76.9756 11.4787 76.9756 11.1782Z" fill="white"/>
<g clip-path="url(#clip0_1_157)">
<path d="M10.0307 8.41982C9.35578 7.43704 8.20622 6.85022 6.95561 6.85022C5.70511 6.85022 4.55544 7.43704 3.88058 8.41982L2.25415 10.7879C1.98429 11.1809 1.85978 11.6347 1.894 12.1003C1.92822 12.566 2.11808 12.9997 2.44297 13.3546C2.7681 13.7094 3.19771 13.9519 3.68534 14.0559C4.17298 14.1599 4.67285 14.1155 5.13085 13.9277L5.16072 13.9153C6.31325 13.4516 7.63058 13.4558 8.78025 13.9277C9.07677 14.0493 9.39091 14.1108 9.70791 14.1108C9.88026 14.1108 10.0536 14.0926 10.2254 14.056C10.713 13.9521 11.1427 13.7097 11.4679 13.3548C11.7929 13 11.9829 12.5662 12.0172 12.1005C12.0515 11.6347 11.927 11.1809 11.6572 10.7878L10.0307 8.41982ZM10.7997 12.8214C10.386 13.2728 9.71672 13.4155 9.13422 13.1765C8.44185 12.8922 7.69867 12.7502 6.95526 12.7502C6.21254 12.7502 5.46948 12.8921 4.77757 13.176L4.75788 13.1841C4.17984 13.4123 3.52043 13.2678 3.11131 12.8214C2.69806 12.3699 2.65103 11.7308 2.99435 11.2308L4.6209 8.86266C5.13336 8.11647 6.00609 7.67096 6.95561 7.67096C7.90512 7.67096 8.77796 8.11647 9.29054 8.86266L10.9169 11.2307C11.2603 11.7309 11.2132 12.3701 10.7997 12.8214Z" fill="white"/>
<path d="M2.69223 8.41662C3.17608 8.24316 3.54367 7.87925 3.72735 7.39187C3.90198 6.9281 3.88768 6.40451 3.68683 5.91744C3.48588 5.4307 3.12035 5.03336 2.65767 4.79848C2.17141 4.55186 1.63731 4.5117 1.15426 4.68548C0.182423 5.03422 -0.263553 6.1551 0.160222 7.18466C0.498738 8.00412 1.28827 8.52141 2.08649 8.52141C2.29031 8.52141 2.4947 8.48765 2.69223 8.41662ZM0.980763 6.88986C0.731053 6.28317 0.950436 5.63781 1.47011 5.45132C1.56395 5.41757 1.66317 5.4008 1.76445 5.4008C1.92078 5.4008 2.08226 5.44064 2.23767 5.51957C2.51713 5.66131 2.74041 5.9074 2.86629 6.21235C2.99206 6.51751 3.00328 6.83966 2.89776 7.11961C2.80106 7.37617 2.61601 7.5648 2.37683 7.65057L2.37637 7.65078C1.85738 7.83749 1.23127 7.49601 0.980763 6.88986Z" fill="white"/>
<path d="M5.84804 6.56136C7.06294 6.56136 8.05137 5.51033 8.05137 4.21844C8.05137 2.92624 7.06294 1.875 5.84804 1.875C4.63325 1.875 3.64494 2.92624 3.64494 4.21844C3.64494 5.51033 4.63325 6.56136 5.84804 6.56136ZM5.84804 2.69563C6.57806 2.69563 7.17212 3.3788 7.17212 4.21844C7.17212 5.05777 6.57806 5.74072 5.84804 5.74072C5.11802 5.74072 4.52419 5.05777 4.52419 4.21844C4.52419 3.3788 5.11802 2.69563 5.84804 2.69563Z" fill="white"/>
<path d="M9.65321 7.13698H9.65333C9.84021 7.19487 10.0309 7.22253 10.2207 7.22253C11.1067 7.22253 11.9702 6.62065 12.2997 5.69566C12.4894 5.16321 12.4769 4.6002 12.2645 4.11047C12.0423 3.59788 11.6304 3.22575 11.1047 3.06255C10.5789 2.89955 10.01 2.96748 9.50318 3.25395C9.01898 3.52771 8.64797 3.97162 8.45857 4.50407C8.0586 5.6273 8.59452 6.80843 9.65321 7.13698ZM9.29295 4.76288C9.41667 4.41521 9.6531 4.12874 9.95877 3.95592C10.2416 3.79602 10.5501 3.75532 10.8274 3.84131C11.1046 3.9274 11.3254 4.13226 11.4495 4.4183C11.5835 4.72742 11.5892 5.08908 11.4653 5.43675C11.2182 6.1306 10.5297 6.54396 9.93062 6.35821C9.33198 6.17236 9.04588 5.45673 9.29295 4.76288Z" fill="white"/>
<path d="M14.2932 6.86352L14.2929 6.8632C13.455 6.28556 12.202 6.53593 11.4995 7.42161C10.7976 8.30771 10.9074 9.49898 11.7439 10.077C12.049 10.288 12.4095 10.3888 12.7785 10.3888C13.4215 10.3888 14.0905 10.0825 14.5377 9.51917C15.2395 8.63306 15.1299 7.44179 14.2932 6.86352ZM13.831 9.03093C13.4161 9.55356 12.7147 9.72692 12.2671 9.41748C11.8199 9.10848 11.7927 8.43194 12.2064 7.90963C12.4814 7.56292 12.8831 7.37002 13.2533 7.37002C13.4405 7.37002 13.6197 7.41936 13.7703 7.52329C14.2172 7.83262 14.2443 8.50895 13.831 9.03093Z" fill="white"/>
</g>
<g clip-path="url(#clip1_1_157)">
<path d="M110.031 8.41982C109.356 7.43704 108.206 6.85022 106.956 6.85022C105.705 6.85022 104.555 7.43704 103.881 8.41982L102.254 10.7879C101.984 11.1809 101.86 11.6347 101.894 12.1003C101.928 12.566 102.118 12.9997 102.443 13.3546C102.768 13.7094 103.198 13.9519 103.685 14.0559C104.173 14.1599 104.673 14.1155 105.131 13.9277L105.161 13.9153C106.313 13.4516 107.631 13.4558 108.78 13.9277C109.077 14.0493 109.391 14.1108 109.708 14.1108C109.88 14.1108 110.054 14.0926 110.225 14.056C110.713 13.9521 111.143 13.7097 111.468 13.3548C111.793 13 111.983 12.5662 112.017 12.1005C112.052 11.6347 111.927 11.1809 111.657 10.7878L110.031 8.41982ZM110.8 12.8214C110.386 13.2728 109.717 13.4155 109.134 13.1765C108.442 12.8922 107.699 12.7502 106.955 12.7502C106.213 12.7502 105.469 12.8921 104.778 13.176L104.758 13.1841C104.18 13.4123 103.52 13.2678 103.111 12.8214C102.698 12.3699 102.651 11.7308 102.994 11.2308L104.621 8.86266C105.133 8.11647 106.006 7.67096 106.956 7.67096C107.905 7.67096 108.778 8.11647 109.291 8.86266L110.917 11.2307C111.26 11.7309 111.213 12.3701 110.8 12.8214Z" fill="white"/>
<path d="M102.692 8.41662C103.176 8.24316 103.544 7.87925 103.727 7.39187C103.902 6.9281 103.888 6.40451 103.687 5.91744C103.486 5.4307 103.12 5.03336 102.658 4.79848C102.171 4.55186 101.637 4.5117 101.154 4.68548C100.182 5.03422 99.7364 6.1551 100.16 7.18466C100.499 8.00412 101.288 8.52141 102.086 8.52141C102.29 8.52141 102.495 8.48765 102.692 8.41662ZM100.981 6.88986C100.731 6.28317 100.95 5.63781 101.47 5.45132C101.564 5.41757 101.663 5.4008 101.764 5.4008C101.921 5.4008 102.082 5.44064 102.238 5.51957C102.517 5.66131 102.74 5.9074 102.866 6.21235C102.992 6.51751 103.003 6.83966 102.898 7.11961C102.801 7.37617 102.616 7.5648 102.377 7.65057L102.376 7.65078C101.857 7.83749 101.231 7.49601 100.981 6.88986Z" fill="white"/>
<path d="M105.848 6.56136C107.063 6.56136 108.051 5.51033 108.051 4.21844C108.051 2.92624 107.063 1.875 105.848 1.875C104.633 1.875 103.645 2.92624 103.645 4.21844C103.645 5.51033 104.633 6.56136 105.848 6.56136ZM105.848 2.69563C106.578 2.69563 107.172 3.3788 107.172 4.21844C107.172 5.05777 106.578 5.74072 105.848 5.74072C105.118 5.74072 104.524 5.05777 104.524 4.21844C104.524 3.3788 105.118 2.69563 105.848 2.69563Z" fill="white"/>
<path d="M109.653 7.13698H109.653C109.84 7.19487 110.031 7.22253 110.221 7.22253C111.107 7.22253 111.97 6.62065 112.3 5.69566C112.489 5.16321 112.477 4.6002 112.265 4.11047C112.042 3.59788 111.63 3.22575 111.105 3.06255C110.579 2.89955 110.01 2.96748 109.503 3.25395C109.019 3.52771 108.648 3.97162 108.459 4.50407C108.059 5.6273 108.595 6.80843 109.653 7.13698ZM109.293 4.76288C109.417 4.41521 109.653 4.12874 109.959 3.95592C110.242 3.79602 110.55 3.75532 110.827 3.84131C111.105 3.9274 111.325 4.13226 111.449 4.4183C111.583 4.72742 111.589 5.08908 111.465 5.43675C111.218 6.1306 110.53 6.54396 109.931 6.35821C109.332 6.17236 109.046 5.45673 109.293 4.76288Z" fill="white"/>
<path d="M114.293 6.86352L114.293 6.8632C113.455 6.28556 112.202 6.53593 111.499 7.42161C110.798 8.30771 110.907 9.49898 111.744 10.077C112.049 10.288 112.41 10.3888 112.778 10.3888C113.422 10.3888 114.091 10.0825 114.538 9.51917C115.24 8.63306 115.13 7.44179 114.293 6.86352ZM113.831 9.03093C113.416 9.55356 112.715 9.72692 112.267 9.41748C111.82 9.10848 111.793 8.43194 112.206 7.90963C112.481 7.56292 112.883 7.37002 113.253 7.37002C113.441 7.37002 113.62 7.41936 113.77 7.52329C114.217 7.83262 114.244 8.50895 113.831 9.03093Z" fill="white"/>
</g>
<path d="M118.292 9.38184V13H117.073V3.75781H120.481C121.493 3.75781 122.284 4.01595 122.855 4.53223C123.431 5.0485 123.719 5.73193 123.719 6.58252C123.719 7.47965 123.437 8.17155 122.875 8.6582C122.316 9.14062 121.514 9.38184 120.469 9.38184H118.292ZM118.292 8.38525H120.481C121.133 8.38525 121.632 8.23291 121.979 7.92822C122.326 7.6193 122.5 7.17497 122.5 6.59521C122.5 6.04508 122.326 5.60498 121.979 5.2749C121.632 4.94482 121.156 4.77344 120.551 4.76074H118.292V8.38525ZM127.851 13.127C126.92 13.127 126.163 12.8223 125.579 12.2129C124.995 11.5993 124.703 10.7804 124.703 9.75635V9.54053C124.703 8.85921 124.832 8.25195 125.09 7.71875C125.352 7.18132 125.716 6.76237 126.182 6.46191C126.651 6.15723 127.159 6.00488 127.705 6.00488C128.598 6.00488 129.292 6.29899 129.787 6.88721C130.282 7.47542 130.53 8.31755 130.53 9.41357V9.90234H125.877C125.894 10.5794 126.091 11.1274 126.467 11.5464C126.848 11.9611 127.331 12.1685 127.915 12.1685C128.329 12.1685 128.681 12.0838 128.968 11.9146C129.256 11.7453 129.508 11.521 129.724 11.2417L130.441 11.8003C129.865 12.6847 129.002 13.127 127.851 13.127ZM127.705 6.96973C127.231 6.96973 126.833 7.14323 126.512 7.49023C126.19 7.83301 125.991 8.31543 125.915 8.9375H129.355V8.84863C129.322 8.25195 129.161 7.79069 128.873 7.46484C128.585 7.13477 128.196 6.96973 127.705 6.96973ZM133.488 4.46875V6.13184H134.77V7.03955H133.488V11.2988C133.488 11.5739 133.545 11.7812 133.659 11.9209C133.773 12.0563 133.968 12.124 134.243 12.124C134.379 12.124 134.565 12.0986 134.802 12.0479V13C134.493 13.0846 134.192 13.127 133.9 13.127C133.376 13.127 132.98 12.9683 132.713 12.6509C132.447 12.3335 132.313 11.8828 132.313 11.2988V7.03955H131.063V6.13184H132.313V4.46875H133.488ZM140.146 11.1782C140.146 10.8608 140.026 10.6154 139.785 10.4419C139.548 10.2642 139.131 10.1118 138.534 9.98486C137.942 9.85791 137.47 9.70557 137.119 9.52783C136.772 9.3501 136.514 9.13851 136.344 8.89307C136.179 8.64762 136.097 8.35563 136.097 8.01709C136.097 7.45426 136.334 6.97819 136.808 6.58887C137.286 6.19954 137.895 6.00488 138.636 6.00488C139.414 6.00488 140.045 6.20589 140.527 6.60791C141.014 7.00993 141.257 7.52409 141.257 8.15039H140.077C140.077 7.82878 139.939 7.5516 139.664 7.31885C139.393 7.0861 139.05 6.96973 138.636 6.96973C138.208 6.96973 137.874 7.06283 137.633 7.24902C137.392 7.43522 137.271 7.67855 137.271 7.979C137.271 8.26253 137.383 8.47624 137.607 8.62012C137.832 8.764 138.236 8.90153 138.82 9.03271C139.408 9.1639 139.884 9.32048 140.248 9.50244C140.612 9.68441 140.881 9.90446 141.054 10.1626C141.232 10.4165 141.321 10.7275 141.321 11.0957C141.321 11.7093 141.075 12.2023 140.584 12.5747C140.094 12.9429 139.457 13.127 138.674 13.127C138.124 13.127 137.637 13.0296 137.214 12.835C136.791 12.6403 136.458 12.3695 136.217 12.0225C135.98 11.6712 135.862 11.2925 135.862 10.8862H137.036C137.057 11.2798 137.214 11.5929 137.506 11.8257C137.802 12.0542 138.191 12.1685 138.674 12.1685C139.118 12.1685 139.474 12.0796 139.74 11.9019C140.011 11.7199 140.146 11.4787 140.146 11.1782Z" fill="white"/>
<path d="M187.176 12H185.951L181.298 4.87793V12H180.073V2.75781H181.298L185.963 9.91162V2.75781H187.176V12ZM188.845 8.50244C188.845 7.82959 188.976 7.22445 189.239 6.68701C189.505 6.14958 189.874 5.73486 190.343 5.44287C190.817 5.15088 191.357 5.00488 191.962 5.00488C192.897 5.00488 193.653 5.32861 194.228 5.97607C194.808 6.62354 195.098 7.4847 195.098 8.55957V8.64209C195.098 9.31071 194.969 9.91162 194.71 10.4448C194.457 10.9738 194.09 11.3864 193.612 11.6826C193.138 11.9788 192.592 12.127 191.975 12.127C191.044 12.127 190.288 11.8032 189.708 11.1558C189.133 10.5083 188.845 9.65137 188.845 8.58496V8.50244ZM190.026 8.64209C190.026 9.40381 190.201 10.0153 190.553 10.4766C190.908 10.9378 191.382 11.1685 191.975 11.1685C192.571 11.1685 193.045 10.9357 193.396 10.4702C193.748 10.0005 193.923 9.34456 193.923 8.50244C193.923 7.74919 193.743 7.13981 193.384 6.67432C193.028 6.20459 192.554 5.96973 191.962 5.96973C191.382 5.96973 190.915 6.20036 190.559 6.66162C190.204 7.12288 190.026 7.78304 190.026 8.64209ZM200.569 10.1782C200.569 9.86084 200.449 9.6154 200.208 9.44189C199.971 9.26416 199.554 9.11182 198.957 8.98486C198.365 8.85791 197.893 8.70557 197.542 8.52783C197.194 8.3501 196.936 8.13851 196.767 7.89307C196.602 7.64762 196.52 7.35563 196.52 7.01709C196.52 6.45426 196.757 5.97819 197.23 5.58887C197.709 5.19954 198.318 5.00488 199.059 5.00488C199.837 5.00488 200.468 5.20589 200.95 5.60791C201.437 6.00993 201.68 6.52409 201.68 7.15039H200.5C200.5 6.82878 200.362 6.5516 200.087 6.31885C199.816 6.0861 199.473 5.96973 199.059 5.96973C198.631 5.96973 198.297 6.06283 198.056 6.24902C197.814 6.43522 197.694 6.67855 197.694 6.979C197.694 7.26253 197.806 7.47624 198.03 7.62012C198.255 7.764 198.659 7.90153 199.243 8.03271C199.831 8.1639 200.307 8.32048 200.671 8.50244C201.035 8.68441 201.304 8.90446 201.477 9.1626C201.655 9.4165 201.744 9.72754 201.744 10.0957C201.744 10.7093 201.498 11.2023 201.007 11.5747C200.516 11.9429 199.88 12.127 199.097 12.127C198.547 12.127 198.06 12.0296 197.637 11.835C197.214 11.6403 196.881 11.3695 196.64 11.0225C196.403 10.6712 196.285 10.2925 196.285 9.88623H197.459C197.48 10.2798 197.637 10.5929 197.929 10.8257C198.225 11.0542 198.614 11.1685 199.097 11.1685C199.541 11.1685 199.896 11.0796 200.163 10.9019C200.434 10.7199 200.569 10.4787 200.569 10.1782ZM202.962 8.50244C202.962 7.82959 203.094 7.22445 203.356 6.68701C203.623 6.14958 203.991 5.73486 204.46 5.44287C204.934 5.15088 205.474 5.00488 206.079 5.00488C207.014 5.00488 207.77 5.32861 208.345 5.97607C208.925 6.62354 209.215 7.4847 209.215 8.55957V8.64209C209.215 9.31071 209.086 9.91162 208.828 10.4448C208.574 10.9738 208.208 11.3864 207.729 11.6826C207.256 11.9788 206.71 12.127 206.092 12.127C205.161 12.127 204.405 11.8032 203.826 11.1558C203.25 10.5083 202.962 9.65137 202.962 8.58496V8.50244ZM204.143 8.64209C204.143 9.40381 204.319 10.0153 204.67 10.4766C205.025 10.9378 205.499 11.1685 206.092 11.1685C206.688 11.1685 207.162 10.9357 207.514 10.4702C207.865 10.0005 208.041 9.34456 208.041 8.50244C208.041 7.74919 207.861 7.13981 207.501 6.67432C207.146 6.20459 206.672 5.96973 206.079 5.96973C205.499 5.96973 205.032 6.20036 204.676 6.66162C204.321 7.12288 204.143 7.78304 204.143 8.64209ZM212.281 3.46875V5.13184H213.563V6.03955H212.281V10.2988C212.281 10.5739 212.338 10.7812 212.452 10.9209C212.566 11.0563 212.761 11.124 213.036 11.124C213.172 11.124 213.358 11.0986 213.595 11.0479V12C213.286 12.0846 212.985 12.127 212.693 12.127C212.169 12.127 211.773 11.9683 211.506 11.6509C211.24 11.3335 211.106 10.8828 211.106 10.2988V6.03955H209.856V5.13184H211.106V3.46875H212.281ZM218.26 6.18555C218.083 6.15592 217.89 6.14111 217.683 6.14111C216.912 6.14111 216.39 6.46908 216.115 7.125V12H214.94V5.13184H216.083L216.102 5.92529C216.487 5.31169 217.033 5.00488 217.74 5.00488C217.968 5.00488 218.142 5.03451 218.26 5.09375V6.18555ZM218.908 8.50244C218.908 7.82959 219.039 7.22445 219.301 6.68701C219.568 6.14958 219.936 5.73486 220.406 5.44287C220.88 5.15088 221.419 5.00488 222.024 5.00488C222.96 5.00488 223.715 5.32861 224.291 5.97607C224.87 6.62354 225.16 7.4847 225.16 8.55957V8.64209C225.16 9.31071 225.031 9.91162 224.773 10.4448C224.519 10.9738 224.153 11.3864 223.675 11.6826C223.201 11.9788 222.655 12.127 222.037 12.127C221.106 12.127 220.351 11.8032 219.771 11.1558C219.195 10.5083 218.908 9.65137 218.908 8.58496V8.50244ZM220.088 8.64209C220.088 9.40381 220.264 10.0153 220.615 10.4766C220.971 10.9378 221.445 11.1685 222.037 11.1685C222.634 11.1685 223.108 10.9357 223.459 10.4702C223.81 10.0005 223.986 9.34456 223.986 8.50244C223.986 7.74919 223.806 7.13981 223.446 6.67432C223.091 6.20459 222.617 5.96973 222.024 5.96973C221.445 5.96973 220.977 6.20036 220.622 6.66162C220.266 7.12288 220.088 7.78304 220.088 8.64209ZM230.632 10.1782C230.632 9.86084 230.511 9.6154 230.27 9.44189C230.033 9.26416 229.616 9.11182 229.02 8.98486C228.427 8.85791 227.955 8.70557 227.604 8.52783C227.257 8.3501 226.999 8.13851 226.83 7.89307C226.665 7.64762 226.582 7.35563 226.582 7.01709C226.582 6.45426 226.819 5.97819 227.293 5.58887C227.771 5.19954 228.381 5.00488 229.121 5.00488C229.9 5.00488 230.53 5.20589 231.013 5.60791C231.499 6.00993 231.743 6.52409 231.743 7.15039H230.562C230.562 6.82878 230.424 6.5516 230.149 6.31885C229.879 6.0861 229.536 5.96973 229.121 5.96973C228.694 5.96973 228.359 6.06283 228.118 6.24902C227.877 6.43522 227.756 6.67855 227.756 6.979C227.756 7.26253 227.868 7.47624 228.093 7.62012C228.317 7.764 228.721 7.90153 229.305 8.03271C229.893 8.1639 230.369 8.32048 230.733 8.50244C231.097 8.68441 231.366 8.90446 231.54 9.1626C231.717 9.4165 231.806 9.72754 231.806 10.0957C231.806 10.7093 231.561 11.2023 231.07 11.5747C230.579 11.9429 229.942 12.127 229.159 12.127C228.609 12.127 228.122 12.0296 227.699 11.835C227.276 11.6403 226.944 11.3695 226.703 11.0225C226.466 10.6712 226.347 10.2925 226.347 9.88623H227.521C227.543 10.2798 227.699 10.5929 227.991 10.8257C228.287 11.0542 228.677 11.1685 229.159 11.1685C229.604 11.1685 229.959 11.0796 230.226 10.9019C230.496 10.7199 230.632 10.4787 230.632 10.1782Z" fill="white"/>
<g clip-path="url(#clip2_1_157)">
<path d="M173.031 7.41982C172.356 6.43704 171.206 5.85022 169.956 5.85022C168.705 5.85022 167.555 6.43704 166.881 7.41982L165.254 9.78793C164.984 10.1809 164.86 10.6347 164.894 11.1003C164.928 11.566 165.118 11.9997 165.443 12.3546C165.768 12.7094 166.198 12.9519 166.685 13.0559C167.173 13.1599 167.673 13.1155 168.131 12.9277L168.161 12.9153C169.313 12.4516 170.631 12.4558 171.78 12.9277C172.077 13.0493 172.391 13.1108 172.708 13.1108C172.88 13.1108 173.054 13.0926 173.225 13.056C173.713 12.9521 174.143 12.7097 174.468 12.3548C174.793 12 174.983 11.5662 175.017 11.1005C175.052 10.6347 174.927 10.1809 174.657 9.78783L173.031 7.41982ZM173.8 11.8214C173.386 12.2728 172.717 12.4155 172.134 12.1765C171.442 11.8922 170.699 11.7502 169.955 11.7502C169.213 11.7502 168.469 11.8921 167.778 12.176L167.758 12.1841C167.18 12.4123 166.52 12.2678 166.111 11.8214C165.698 11.3699 165.651 10.7308 165.994 10.2308L167.621 7.86266C168.133 7.11647 169.006 6.67096 169.956 6.67096C170.905 6.67096 171.778 7.11647 172.291 7.86266L173.917 10.2307C174.26 10.7309 174.213 11.3701 173.8 11.8214Z" fill="white"/>
<path d="M165.692 7.41662C166.176 7.24316 166.544 6.87925 166.727 6.39187C166.902 5.9281 166.888 5.40451 166.687 4.91744C166.486 4.4307 166.12 4.03336 165.658 3.79848C165.171 3.55186 164.637 3.5117 164.154 3.68548C163.182 4.03422 162.736 5.1551 163.16 6.18466C163.499 7.00412 164.288 7.52141 165.086 7.52141C165.29 7.52141 165.495 7.48765 165.692 7.41662ZM163.981 5.88986C163.731 5.28317 163.95 4.63781 164.47 4.45132C164.564 4.41757 164.663 4.4008 164.764 4.4008C164.921 4.4008 165.082 4.44064 165.238 4.51957C165.517 4.66131 165.74 4.9074 165.866 5.21235C165.992 5.51751 166.003 5.83966 165.898 6.11961C165.801 6.37617 165.616 6.5648 165.377 6.65057L165.376 6.65078C164.857 6.83749 164.231 6.49601 163.981 5.88986Z" fill="white"/>
<path d="M168.848 5.56136C170.063 5.56136 171.051 4.51033 171.051 3.21844C171.051 1.92624 170.063 0.875 168.848 0.875C167.633 0.875 166.645 1.92624 166.645 3.21844C166.645 4.51033 167.633 5.56136 168.848 5.56136ZM168.848 1.69563C169.578 1.69563 170.172 2.3788 170.172 3.21844C170.172 4.05777 169.578 4.74072 168.848 4.74072C168.118 4.74072 167.524 4.05777 167.524 3.21844C167.524 2.3788 168.118 1.69563 168.848 1.69563Z" fill="white"/>
<path d="M172.653 6.13698H172.653C172.84 6.19487 173.031 6.22253 173.221 6.22253C174.107 6.22253 174.97 5.62065 175.3 4.69566C175.489 4.16321 175.477 3.6002 175.265 3.11047C175.042 2.59788 174.63 2.22575 174.105 2.06255C173.579 1.89955 173.01 1.96748 172.503 2.25395C172.019 2.52771 171.648 2.97162 171.459 3.50407C171.059 4.6273 171.595 5.80843 172.653 6.13698ZM172.293 3.76288C172.417 3.41521 172.653 3.12874 172.959 2.95592C173.242 2.79602 173.55 2.75532 173.827 2.84131C174.105 2.9274 174.325 3.13226 174.449 3.4183C174.583 3.72742 174.589 4.08908 174.465 4.43675C174.218 5.1306 173.53 5.54396 172.931 5.35821C172.332 5.17236 172.046 4.45673 172.293 3.76288Z" fill="white"/>
<path d="M177.293 5.86352L177.293 5.8632C176.455 5.28556 175.202 5.53593 174.499 6.42161C173.798 7.30771 173.907 8.49898 174.744 9.07704C175.049 9.288 175.41 9.38883 175.778 9.38883C176.422 9.38883 177.091 9.08249 177.538 8.51917C178.24 7.63306 178.13 6.44179 177.293 5.86352ZM176.831 8.03093C176.416 8.55356 175.715 8.72692 175.267 8.41748C174.82 8.10848 174.793 7.43194 175.206 6.90963C175.481 6.56292 175.883 6.37002 176.253 6.37002C176.441 6.37002 176.62 6.41936 176.77 6.52329C177.217 6.83262 177.244 7.50895 176.831 8.03093Z" fill="white"/>
</g>
<path d="M276.871 10.0674C276.757 11.0449 276.395 11.8003 275.786 12.3335C275.181 12.8625 274.374 13.127 273.367 13.127C272.275 13.127 271.399 12.7355 270.739 11.9526C270.083 11.1698 269.755 10.1224 269.755 8.81055V7.92188C269.755 7.06283 269.908 6.30745 270.212 5.65576C270.521 5.00407 270.957 4.50472 271.52 4.15771C272.083 3.80648 272.735 3.63086 273.475 3.63086C274.457 3.63086 275.244 3.90592 275.836 4.45605C276.429 5.00195 276.774 5.75944 276.871 6.72852H275.646C275.54 5.99219 275.31 5.45898 274.954 5.12891C274.603 4.79883 274.11 4.63379 273.475 4.63379C272.696 4.63379 272.085 4.92155 271.641 5.49707C271.201 6.07259 270.98 6.89144 270.98 7.95361V8.84863C270.98 9.85156 271.19 10.6493 271.609 11.2417C272.028 11.8341 272.614 12.1304 273.367 12.1304C274.044 12.1304 274.563 11.978 274.922 11.6733C275.286 11.3644 275.528 10.8291 275.646 10.0674H276.871ZM278.045 9.50244C278.045 8.82959 278.177 8.22445 278.439 7.68701C278.706 7.14958 279.074 6.73486 279.543 6.44287C280.017 6.15088 280.557 6.00488 281.162 6.00488C282.097 6.00488 282.853 6.32861 283.428 6.97607C284.008 7.62354 284.298 8.4847 284.298 9.55957V9.64209C284.298 10.3107 284.169 10.9116 283.911 11.4448C283.657 11.9738 283.291 12.3864 282.812 12.6826C282.339 12.9788 281.793 13.127 281.175 13.127C280.244 13.127 279.488 12.8032 278.909 12.1558C278.333 11.5083 278.045 10.6514 278.045 9.58496V9.50244ZM279.226 9.64209C279.226 10.4038 279.402 11.0153 279.753 11.4766C280.108 11.9378 280.582 12.1685 281.175 12.1685C281.771 12.1685 282.245 11.9357 282.597 11.4702C282.948 11.0005 283.124 10.3446 283.124 9.50244C283.124 8.74919 282.944 8.13981 282.584 7.67432C282.229 7.20459 281.755 6.96973 281.162 6.96973C280.582 6.96973 280.115 7.20036 279.759 7.66162C279.404 8.12288 279.226 8.78304 279.226 9.64209ZM286.881 6.13184L286.919 6.99512C287.444 6.33496 288.13 6.00488 288.976 6.00488C290.428 6.00488 291.16 6.82373 291.172 8.46143V13H289.998V8.45508C289.994 7.95996 289.88 7.59391 289.655 7.35693C289.435 7.11995 289.09 7.00146 288.621 7.00146C288.24 7.00146 287.905 7.10303 287.618 7.30615C287.33 7.50928 287.106 7.77588 286.945 8.10596V13H285.771V6.13184H286.881ZM294.537 4.46875V6.13184H295.819V7.03955H294.537V11.2988C294.537 11.5739 294.594 11.7812 294.708 11.9209C294.822 12.0563 295.017 12.124 295.292 12.124C295.427 12.124 295.614 12.0986 295.851 12.0479V13C295.542 13.0846 295.241 13.127 294.949 13.127C294.424 13.127 294.029 12.9683 293.762 12.6509C293.496 12.3335 293.362 11.8828 293.362 11.2988V7.03955H292.112V6.13184H293.362V4.46875H294.537ZM301.437 13C301.369 12.8646 301.314 12.6234 301.271 12.2764C300.726 12.8434 300.074 13.127 299.316 13.127C298.639 13.127 298.083 12.9365 297.647 12.5557C297.215 12.1706 297 11.6839 297 11.0957C297 10.3805 297.27 9.82617 297.812 9.43262C298.358 9.03483 299.124 8.83594 300.11 8.83594H301.252V8.29639C301.252 7.8859 301.13 7.56006 300.884 7.31885C300.639 7.0734 300.277 6.95068 299.799 6.95068C299.38 6.95068 299.029 7.05648 298.745 7.26807C298.462 7.47965 298.32 7.73568 298.32 8.03613H297.139C297.139 7.69336 297.26 7.36328 297.501 7.0459C297.746 6.72428 298.076 6.47038 298.491 6.28418C298.91 6.09798 299.369 6.00488 299.869 6.00488C300.66 6.00488 301.28 6.20378 301.729 6.60156C302.177 6.99512 302.41 7.5389 302.427 8.23291V11.394C302.427 12.0246 302.507 12.526 302.668 12.8984V13H301.437ZM299.488 12.105C299.856 12.105 300.205 12.0098 300.535 11.8193C300.865 11.6289 301.104 11.3813 301.252 11.0767V9.66748H300.332C298.893 9.66748 298.174 10.0885 298.174 10.9307C298.174 11.2988 298.297 11.5866 298.542 11.7939C298.787 12.0013 299.103 12.105 299.488 12.105ZM307.022 12.1685C307.441 12.1685 307.807 12.0415 308.121 11.7876C308.434 11.5337 308.607 11.2163 308.641 10.8354H309.752C309.731 11.229 309.595 11.6035 309.346 11.959C309.096 12.3145 308.762 12.598 308.343 12.8096C307.928 13.0212 307.488 13.127 307.022 13.127C306.087 13.127 305.342 12.8159 304.788 12.1938C304.238 11.5675 303.963 10.7127 303.963 9.62939V9.43262C303.963 8.764 304.086 8.16943 304.331 7.64893C304.576 7.12842 304.928 6.72428 305.385 6.43652C305.846 6.14876 306.39 6.00488 307.016 6.00488C307.786 6.00488 308.425 6.23551 308.933 6.69678C309.445 7.15804 309.718 7.75684 309.752 8.49316H308.641C308.607 8.04883 308.438 7.6849 308.133 7.40137C307.833 7.11361 307.46 6.96973 307.016 6.96973C306.419 6.96973 305.956 7.18555 305.626 7.61719C305.3 8.0446 305.137 8.66455 305.137 9.47705V9.69922C305.137 10.4906 305.3 11.0999 305.626 11.5273C305.952 11.9548 306.417 12.1685 307.022 12.1685ZM312.666 4.46875V6.13184H313.948V7.03955H312.666V11.2988C312.666 11.5739 312.723 11.7812 312.837 11.9209C312.951 12.0563 313.146 12.124 313.421 12.124C313.556 12.124 313.743 12.0986 313.979 12.0479V13C313.671 13.0846 313.37 13.127 313.078 13.127C312.553 13.127 312.158 12.9683 311.891 12.6509C311.625 12.3335 311.491 11.8828 311.491 11.2988V7.03955H310.241V6.13184H311.491V4.46875H312.666ZM319.565 13C319.498 12.8646 319.443 12.6234 319.4 12.2764C318.854 12.8434 318.203 13.127 317.445 13.127C316.768 13.127 316.212 12.9365 315.776 12.5557C315.344 12.1706 315.128 11.6839 315.128 11.0957C315.128 10.3805 315.399 9.82617 315.941 9.43262C316.487 9.03483 317.253 8.83594 318.239 8.83594H319.381V8.29639C319.381 7.8859 319.259 7.56006 319.013 7.31885C318.768 7.0734 318.406 6.95068 317.928 6.95068C317.509 6.95068 317.158 7.05648 316.874 7.26807C316.59 7.47965 316.449 7.73568 316.449 8.03613H315.268C315.268 7.69336 315.389 7.36328 315.63 7.0459C315.875 6.72428 316.205 6.47038 316.62 6.28418C317.039 6.09798 317.498 6.00488 317.998 6.00488C318.789 6.00488 319.409 6.20378 319.857 6.60156C320.306 6.99512 320.539 7.5389 320.556 8.23291V11.394C320.556 12.0246 320.636 12.526 320.797 12.8984V13H319.565ZM317.617 12.105C317.985 12.105 318.334 12.0098 318.664 11.8193C318.994 11.6289 319.233 11.3813 319.381 11.0767V9.66748H318.461C317.022 9.66748 316.303 10.0885 316.303 10.9307C316.303 11.2988 316.425 11.5866 316.671 11.7939C316.916 12.0013 317.232 12.105 317.617 12.105ZM323.507 6.13184L323.545 6.99512C324.07 6.33496 324.756 6.00488 325.602 6.00488C327.054 6.00488 327.786 6.82373 327.798 8.46143V13H326.624V8.45508C326.62 7.95996 326.506 7.59391 326.281 7.35693C326.061 7.11995 325.716 7.00146 325.247 7.00146C324.866 7.00146 324.531 7.10303 324.244 7.30615C323.956 7.50928 323.732 7.77588 323.571 8.10596V13H322.396V6.13184H323.507ZM329.258 9.50244C329.258 8.82959 329.389 8.22445 329.652 7.68701C329.918 7.14958 330.287 6.73486 330.756 6.44287C331.23 6.15088 331.77 6.00488 332.375 6.00488C333.31 6.00488 334.066 6.32861 334.641 6.97607C335.221 7.62354 335.511 8.4847 335.511 9.55957V9.64209C335.511 10.3107 335.382 10.9116 335.124 11.4448C334.87 11.9738 334.504 12.3864 334.025 12.6826C333.551 12.9788 333.006 13.127 332.388 13.127C331.457 13.127 330.701 12.8032 330.122 12.1558C329.546 11.5083 329.258 10.6514 329.258 9.58496V9.50244ZM330.439 9.64209C330.439 10.4038 330.615 11.0153 330.966 11.4766C331.321 11.9378 331.795 12.1685 332.388 12.1685C332.984 12.1685 333.458 11.9357 333.81 11.4702C334.161 11.0005 334.336 10.3446 334.336 9.50244C334.336 8.74919 334.157 8.13981 333.797 7.67432C333.441 7.20459 332.967 6.96973 332.375 6.96973C331.795 6.96973 331.328 7.20036 330.972 7.66162C330.617 8.12288 330.439 8.78304 330.439 9.64209ZM340.982 11.1782C340.982 10.8608 340.862 10.6154 340.621 10.4419C340.384 10.2642 339.967 10.1118 339.37 9.98486C338.778 9.85791 338.306 9.70557 337.955 9.52783C337.608 9.3501 337.349 9.13851 337.18 8.89307C337.015 8.64762 336.933 8.35563 336.933 8.01709C336.933 7.45426 337.17 6.97819 337.644 6.58887C338.122 6.19954 338.731 6.00488 339.472 6.00488C340.25 6.00488 340.881 6.20589 341.363 6.60791C341.85 7.00993 342.093 7.52409 342.093 8.15039H340.913C340.913 7.82878 340.775 7.5516 340.5 7.31885C340.229 7.0861 339.886 6.96973 339.472 6.96973C339.044 6.96973 338.71 7.06283 338.469 7.24902C338.228 7.43522 338.107 7.67855 338.107 7.979C338.107 8.26253 338.219 8.47624 338.443 8.62012C338.668 8.764 339.072 8.90153 339.656 9.03271C340.244 9.1639 340.72 9.32048 341.084 9.50244C341.448 9.68441 341.717 9.90446 341.89 10.1626C342.068 10.4165 342.157 10.7275 342.157 11.0957C342.157 11.7093 341.911 12.2023 341.42 12.5747C340.93 12.9429 340.293 13.127 339.51 13.127C338.96 13.127 338.473 13.0296 338.05 12.835C337.627 12.6403 337.294 12.3695 337.053 12.0225C336.816 11.6712 336.698 11.2925 336.698 10.8862H337.872C337.893 11.2798 338.05 11.5929 338.342 11.8257C338.638 12.0542 339.027 12.1685 339.51 12.1685C339.954 12.1685 340.31 12.0796 340.576 11.9019C340.847 11.7199 340.982 11.4787 340.982 11.1782Z" fill="white"/>
<g clip-path="url(#clip3_1_157)">
<path d="M263.031 8.41982C262.356 7.43704 261.206 6.85022 259.956 6.85022C258.705 6.85022 257.555 7.43704 256.881 8.41982L255.254 10.7879C254.984 11.1809 254.86 11.6347 254.894 12.1003C254.928 12.566 255.118 12.9997 255.443 13.3546C255.768 13.7094 256.198 13.9519 256.685 14.0559C257.173 14.1599 257.673 14.1155 258.131 13.9277L258.161 13.9153C259.313 13.4516 260.631 13.4558 261.78 13.9277C262.077 14.0493 262.391 14.1108 262.708 14.1108C262.88 14.1108 263.054 14.0926 263.225 14.056C263.713 13.9521 264.143 13.7097 264.468 13.3548C264.793 13 264.983 12.5662 265.017 12.1005C265.052 11.6347 264.927 11.1809 264.657 10.7878L263.031 8.41982ZM263.8 12.8214C263.386 13.2728 262.717 13.4155 262.134 13.1765C261.442 12.8922 260.699 12.7502 259.955 12.7502C259.213 12.7502 258.469 12.8921 257.778 13.176L257.758 13.1841C257.18 13.4123 256.52 13.2678 256.111 12.8214C255.698 12.3699 255.651 11.7308 255.994 11.2308L257.621 8.86266C258.133 8.11647 259.006 7.67096 259.956 7.67096C260.905 7.67096 261.778 8.11647 262.291 8.86266L263.917 11.2307C264.26 11.7309 264.213 12.3701 263.8 12.8214Z" fill="white"/>
<path d="M255.692 8.41662C256.176 8.24316 256.544 7.87925 256.727 7.39187C256.902 6.9281 256.888 6.40451 256.687 5.91744C256.486 5.4307 256.12 5.03336 255.658 4.79848C255.171 4.55186 254.637 4.5117 254.154 4.68548C253.182 5.03422 252.736 6.1551 253.16 7.18466C253.499 8.00412 254.288 8.52141 255.086 8.52141C255.29 8.52141 255.495 8.48765 255.692 8.41662ZM253.981 6.88986C253.731 6.28317 253.95 5.63781 254.47 5.45132C254.564 5.41757 254.663 5.4008 254.764 5.4008C254.921 5.4008 255.082 5.44064 255.238 5.51957C255.517 5.66131 255.74 5.9074 255.866 6.21235C255.992 6.51751 256.003 6.83966 255.898 7.11961C255.801 7.37617 255.616 7.5648 255.377 7.65057L255.376 7.65078C254.857 7.83749 254.231 7.49601 253.981 6.88986Z" fill="white"/>
<path d="M258.848 6.56136C260.063 6.56136 261.051 5.51033 261.051 4.21844C261.051 2.92624 260.063 1.875 258.848 1.875C257.633 1.875 256.645 2.92624 256.645 4.21844C256.645 5.51033 257.633 6.56136 258.848 6.56136ZM258.848 2.69563C259.578 2.69563 260.172 3.3788 260.172 4.21844C260.172 5.05777 259.578 5.74072 258.848 5.74072C258.118 5.74072 257.524 5.05777 257.524 4.21844C257.524 3.3788 258.118 2.69563 258.848 2.69563Z" fill="white"/>
<path d="M262.653 7.13698H262.653C262.84 7.19487 263.031 7.22253 263.221 7.22253C264.107 7.22253 264.97 6.62065 265.3 5.69566C265.489 5.16321 265.477 4.6002 265.265 4.11047C265.042 3.59788 264.63 3.22575 264.105 3.06255C263.579 2.89955 263.01 2.96748 262.503 3.25395C262.019 3.52771 261.648 3.97162 261.459 4.50407C261.059 5.6273 261.595 6.80843 262.653 7.13698ZM262.293 4.76288C262.417 4.41521 262.653 4.12874 262.959 3.95592C263.242 3.79602 263.55 3.75532 263.827 3.84131C264.105 3.9274 264.325 4.13226 264.449 4.4183C264.583 4.72742 264.589 5.08908 264.465 5.43675C264.218 6.1306 263.53 6.54396 262.931 6.35821C262.332 6.17236 262.046 5.45673 262.293 4.76288Z" fill="white"/>
<path d="M267.293 6.86352L267.293 6.8632C266.455 6.28556 265.202 6.53593 264.499 7.42161C263.798 8.30771 263.907 9.49898 264.744 10.077C265.049 10.288 265.41 10.3888 265.778 10.3888C266.422 10.3888 267.091 10.0825 267.538 9.51917C268.24 8.63306 268.13 7.44179 267.293 6.86352ZM266.831 9.03093C266.416 9.55356 265.715 9.72692 265.267 9.41748C264.82 9.10848 264.793 8.43194 265.206 7.90963C265.481 7.56292 265.883 7.37002 266.253 7.37002C266.441 7.37002 266.62 7.41936 266.77 7.52329C267.217 7.83262 267.244 8.50895 266.831 9.03093Z" fill="white"/>
</g>
<defs>
<clipPath id="clip0_1_157">
<rect width="15" height="14" fill="white" transform="translate(0 1)"/>
</clipPath>
<clipPath id="clip1_1_157">
<rect width="15" height="14" fill="white" transform="translate(100 1)"/>
</clipPath>
<clipPath id="clip2_1_157">
<rect width="15" height="14" fill="white" transform="translate(163)"/>
</clipPath>
<clipPath id="clip3_1_157">
<rect width="15" height="14" fill="white" transform="translate(253 1)"/>
</clipPath>
</defs>
</svg>
